# xmcd
#
# Track frame offsets: 
#        150
#        9247
#        19237
#        31350
#        41302
#        52927
#        64610
#        78695
#        96967
#        107570
#        117455
#        129060
#        141132
#        152742
#        174187
#
# Disc length: 2521 seconds
#
# Revision: 1
# Processed by: cddbd v1.5.2PL0 Copyright (c) Steve Scherf et al.
# Submitted via: ExactAudioCopy v0.99pb5
#
DISCID=b109d70f
DTITLE=Various Artist - Classic Country Vol. 17 The '60s Treasures Disc 1
DYEAR=2000
DGENRE=Country
TTITLE0=Buck Owens And The Buckaroos - Buckaroo
TTITLE1=Dave Dudley - Truck Drivin' Son-Of-A-Gun
TTITLE2=Bobby Edwards - You're The Reason
TTITLE3=Claude Gray - I'll Just Have A Cup Of Coffee (Then I'll Go)
TTITLE4=Bill Phillips - Put It Off Until Tomorrow
TTITLE5=Marty Robbins - Ribbon Of Darkness
TTITLE6=Rex Allen - Don't Go Near The Indians
TTITLE7=Johnny Bond - 10 Little Bottles
TTITLE8=Jim Ed Brown - Pop A Top
TTITLE9=Charlie Rich - Lonely Weekends
TTITLE10=Wanda Jackson - In The Middle Of A Heartache
TTITLE11=Ernest Tubb - Waltz Across Texas
TTITLE12=Jack Greene - Until My Dreams Come True
TTITLE13=Ray Price - Night Life
TTITLE14=Roy Clark - Yesterday When I Was Young
EXTD=This is a Time Life collection\n\nDale Peters
EXTT0=
EXTT1=
EXTT2=
EXTT3=
EXTT4=
EXTT5=
EXTT6=
EXTT7=
EXTT8=
EXTT9=
EXTT10=
EXTT11=
EXTT12=
EXTT13=
EXTT14=
PLAYORDER=
